<svg xmlns="http://www.w3.org/2000/svg" width="15.031" height="11.03" viewBox="0 0 15.031 11.03">
  <defs>
    <style>
      .cls-1 {
        fill: #0f7bff;
        fill-rule: evenodd;
      }
    </style>
  </defs>
  <path id="icon" class="cls-1" d="M543.1,5778.15a0.515,0.515,0,0,0-.756,0,0.574,0.574,0,0,0,0,.78l3.833,4H533.529a0.543,0.543,0,0,0-.529.56,0.549,0.549,0,0,0,.529.56h12.649l-3.833,3.99a0.586,0.586,0,0,0,0,.79,0.515,0.515,0,0,0,.756,0l4.74-4.95a0.558,0.558,0,0,0,0-.78Z" transform="translate(-533 -5778)"/>
</svg>
